HIERARCHY
ROOT Hips
{
    OFFSET 0.0 0.0 0.0
    CHANNELS 6 Xposition Yposition Zposition Zrotation Xrotation Yrotation
    JOINT LeftHipJoint
    {
        OFFSET 0.1 0.0 0.0
        CHANNELS 3 Zrotation Xrotation Yrotation
        JOINT LeftUpLeg
        {
            OFFSET 123.57533067881184 0.0 0.0
            CHANNELS 3 Zrotation Xrotation Yrotation
            JOINT LeftLeg
            {
                OFFSET 0.0 0.0 -415.27990996306585
                CHANNELS 3 Zrotation Xrotation Yrotation
                JOINT LeftFoot
                {
                    OFFSET 0.0 0.0 -410.0003042788212
                    CHANNELS 3 Zrotation Xrotation Yrotation
                    End Site
                    {
                        OFFSET 0.0 -0.1 0.0
                    }
                }
            }
        }
    }
    JOINT LowerBack
    {
        OFFSET 0.0 0.0 0.1
        CHANNELS 3 Zrotation Xrotation Yrotation
        JOINT Spine
        {
            OFFSET 0.0 0.0 221.4826840784088
            CHANNELS 3 Zrotation Xrotation Yrotation
            JOINT Spine1
            {
                OFFSET 0.0 0.0 250.63954875236945
                CHANNELS 3 Zrotation Xrotation Yrotation
                JOINT LeftShoulder
                {
                    OFFSET 0.1 0.0 0.0
                    CHANNELS 3 Zrotation Xrotation Yrotation
                    JOINT LeftArm
                    {
                        OFFSET 139.70433584889224 0.0 0.0
                        CHANNELS 3 Zrotation Xrotation Yrotation
                        JOINT LeftForeArm
                        {
                            OFFSET 261.13470370755476 0.0 0.0
                            CHANNELS 3 Zrotation Xrotation Yrotation
                            JOINT LeftHand
                            {
                                OFFSET 238.87565915682296 0.0 0.0
                                CHANNELS 3 Zrotation Xrotation Yrotation
                                End Site
                                {
                                    OFFSET 0.1 0.0 0.0
                                }
                            }
                        }
                    }
                }
                JOINT Neck
                {
                    OFFSET 0.0 0.0 0.1
                    CHANNELS 3 Zrotation Xrotation Yrotation
                    JOINT Neck1
                    {
                        OFFSET 0.0 0.0 105.55907238858575
                        CHANNELS 3 Zrotation Xrotation Yrotation
                        End Site
                        {
                            OFFSET 0.0 0.0 117.64749278209847
                        }
                    }
                }
                JOINT RightShoulder
                {
                    OFFSET -0.1 0.0 0.0
                    CHANNELS 3 Zrotation Xrotation Yrotation
                    JOINT RightArm
                    {
                        OFFSET -139.70433584889224 0.0 0.0
                        CHANNELS 3 Zrotation Xrotation Yrotation
                        JOINT RightForeArm
                        {
                            OFFSET -261.13470370755476 0.0 0.0
                            CHANNELS 3 Zrotation Xrotation Yrotation
                            JOINT RightHand
                            {
                                OFFSET -238.87565915682296 0.0 0.0
                                CHANNELS 3 Zrotation Xrotation Yrotation
                                End Site
                                {
                                    OFFSET -0.1 0.0 0.0
                                }
                            }
                        }
                    }
                }
            }
        }
    }
    JOINT RightHipJoint
    {
        OFFSET -0.1 0.0 0.0
        CHANNELS 3 Zrotation Xrotation Yrotation
        JOINT RightUpLeg
        {
            OFFSET -123.57533067881184 0.0 0.0
            CHANNELS 3 Zrotation Xrotation Yrotation
            JOINT RightLeg
            {
                OFFSET 0.0 0.0 -415.27990996306585
                CHANNELS 3 Zrotation Xrotation Yrotation
                JOINT RightFoot
                {
                    OFFSET 0.0 0.0 -410.0003042788212
                    CHANNELS 3 Zrotation Xrotation Yrotation
                    End Site
                    {
                        OFFSET 0.0 -0.1 0.0
                    }
                }
            }
        }
    }
}
MOTION
Frames: 10
Frame Time: 0.03333333333333333
0.0 0.0 822.5481467276767 24.101764127606035 3.0178979084298794 5.493441666158916 8.620910738379216e-35 -1.987846675914698e-16 4.969616689786745e-17 -0.11788082629535046 -14.81778994985415 -2.2089363403466242 -0.7078896667960045 22.079875411816072 1.5852437728013784 0.0 0.0 0.0 8.620910738379216e-35 -1.987846675914698e-16 4.969616689786745e-17 0.02415555833983493 3.0662114515467733 1.3535536674111195 2.743620947754299 1.5850625814587374e-15 -2.3679944546744064e-16 0.0 0.0 -2.1866313435061676e-15 -28.257821728773184 10.929480564569444 72.27257848732226 -55.85399737582229 1.3068330203724683e-14 -1.1071615060957567e-14 0.0 0.0 0.0 0.0 0.0 -2.1866313435061676e-15 -15.714702785929953 9.124488619510016 -15.238730941646965 0.0 0.0 -2.1866313435061676e-15 5.014254254484365 -27.65136789834113 -51.2124546697959 114.92594801315195 5.4322985761409396e-15 -4.079712496337951e-15 0.0 0.0 0.0 8.620910738379216e-35 -1.987846675914698e-16 4.969616689786745e-17 -0.10128228940148212 -12.49757083935117 -5.423893479528572 -1.996602166851268 21.87305664766369 0.03229668560862685 0.0 0.0 0.0
0.0 0.0 822.5481467276767 23.90734427659948 3.2040643768699364 5.448691909363922 6.896728590703373e-34 -3.975693351829396e-16 1.987846675914698e-16 -0.11186376994831186 -14.969713037040805 -2.1609900211542383 -0.7018385115611023 22.136783481796737 1.6166467048330886 0.0 0.0 -7.951386703658792e-16 6.896728590703373e-34 -3.975693351829396e-16 1.987846675914698e-16 0.02269638254159971 3.0684704802476923 1.3366751704374382 2.823505951488602 -7.948973116058451e-16 1.959002585546976e-17 0.0 0.0 3.975693351829396e-16 -28.15471689232775 10.571941051998433 72.01857278291972 -56.7206478799418 2.953715187144837e-15 7.919552302422001e-15 -3.1805546814635164e-15 -8.827812596100317e-32 3.1805546814635164e-15 0.0 0.0 3.975693351829396e-16 -15.542879068847801 8.599343969248261 -15.033512588720374 0.0 0.0 3.975693351829396e-16 6.205370372090514 -26.0642789800585 -50.672977327559764 112.86669324717784 8.28179840946649e-15 5.495468613192706e-15 0.0 0.0 0.0 6.896728590703373e-34 -3.975693351829396e-16 1.987846675914698e-16 -0.09704693247858513 -12.74700899497336 -5.334331104483442 -1.9885611047835625 22.04287246755328 0.018495475599284987 0.0 0.0 0.0
0.0 0.0 822.5481467276767 23.762515620933534 3.342774385939184 5.453389131979628 0.0 0.0 -4.969616689786745e-17 -0.11798501422227264 -15.119002919242856 -2.1503566524318924 -0.689132933259627 22.121754424906065 1.5620511625598694 0.0 0.0 -3.975693351829396e-16 0.0 0.0 -4.969616689786745e-17 0.02365996166005703 3.066303373307542 1.2532804292460937 2.813378736950299 -4.462489585066885e-16 -1.977487711783468e-15 0.0 0.0 -1.987846675914698e-16 -27.913134275046477 10.344889055431844 71.87171501836364 -57.375620032580585 -1.2069102385735106e-14 8.804511963016648e-15 0.0 0.0 0.0 0.0 0.0 -1.987846675914698e-16 -15.320626210882189 8.25349734735179 -14.71423018788977 0.0 0.0 -1.987846675914698e-16 7.386735505192656 -24.365252468290276 -50.274590958877546 110.91850296361903 -5.08473296032017e-15 1.1944807791607312e-14 0.0 0.0 0.0 0.0 0.0 -4.969616689786745e-17 -0.10316806161252651 -12.990685009998828 -5.319548784985719 -1.9867179737031162 22.163855289826223 0.133736940031411 -3.1805546814635168e-15 0.0 0.0
0.0 0.0 822.5481467276767 23.752756452647116 3.514358254641912 5.500867480186715 -3.1805546814635168e-15 3.586298867165754e-32 -1.2921003393445538e-15 -0.14027491204001177 -15.175751546869774 -2.142458501669647 -0.6473443222525501 21.98120389627209 1.451797799496544 0.0 0.0 0.0 -3.1805546814635168e-15 3.586298867165754e-32 -1.2921003393445538e-15 0.027626270308938116 3.0284425151811614 1.176754150551491 2.685956237021149 1.5758636134618617e-15 -6.334619079604217e-16 0.0 0.0 5.963540027744094e-16 -27.39062988919101 10.101814485067836 71.83060920332157 -57.9201154494177 -1.202299340507305e-14 1.5157076519151414e-14 -3.1805546814635176e-15 -3.1805546814635176e-15 -3.1805546814635176e-15 0.0 0.0 5.963540027744094e-16 -15.088571521645214 7.975360431884747 -14.354572844043872 0.0 0.0 5.963540027744094e-16 7.7279799713062305 -22.43613618860207 -50.65489735070406 108.90595469809236 -1.1763277863147423e-14 7.230963217268334e-15 0.0 0.0 0.0 -3.1805546814635168e-15 3.586298867165754e-32 -1.2921003393445538e-15 -0.12388654606179444 -13.211919012316745 -5.322296107294033 -1.9881513863076552 22.51534045036081 0.16286255898232657 0.0 0.0 0.0
0.0 0.0 822.5481467276767 23.657023650103692 3.63539122365137 5.4829093714983514 0.0 0.0 9.93923337957349e-17 -0.15159805515302466 -15.206272158804673 -2.064587832033466 -0.5985686828942354 21.974793189546954 1.3737132638346794 3.1805546814635168e-15 -1.5902773407317584e-15 -3.9756933518293955e-16 0.0 0.0 9.93923337957349e-17 0.029396989318966612 2.9889749267726176 1.1340081231603634 2.594108250262388 7.994346116738942e-16 1.8073502936199046e-16 0.0 0.0 1.987846675914698e-16 -27.042004940987123 9.830026765456859 71.89193731062305 -57.89900282521721 -8.645289805901835e-15 2.487245228401444e-15 3.1805546814635176e-15 0.0 0.0 0.0 0.0 1.987846675914698e-16 -14.934612340996823 7.7379509944083695 -13.899449983461073 0.0 0.0 1.987846675914698e-16 8.38555876811132 -20.50394780798794 -51.001653207269484 106.8814303554718 -7.301805418160164e-15 2.504551155807997e-15 3.1805546814635168e-15 -1.7655625192200634e-31 -6.3611093629270335e-15 0.0 0.0 9.93923337957349e-17 -0.13459481674060225 -13.313259657673836 -5.280939919809751 -1.976673077191788 22.757580851072397 0.11654646309288068 0.0 -9.93923337957349e-17 0.0
0.0 0.0 822.5481467276767 23.546136032145867 3.5474443736171417 5.429219464588832 3.4483642953516864e-34 -3.975693351829396e-16 9.93923337957349e-17 -0.16330642137809975 -14.992293052432995 -1.9393245816879099 -0.5247905947631203 21.92048997989386 1.3167951143795973 0.0 0.0 3.975693351829396e-16 3.4483642953516864e-34 -3.975693351829396e-16 9.93923337957349e-17 0.03164560431110745 2.9427501469058317 1.009936310199412 2.3749309269938172 -1.2130496284104438e-15 -9.689925630518553e-16 0.0 0.0 5.963540027744094e-16 -26.886269042780885 9.45061422707862 71.92982987364394 -57.24834365278071 -2.160141322469981e-15 1.0597132060729123e-14 0.0 0.0 -1.5902773407317584e-15 0.0 0.0 5.963540027744094e-16 -14.48366046884379 7.733757891859258 -13.260469613981273 0.0 0.0 5.963540027744094e-16 9.147524693634816 -17.867442239546552 -51.647043145817584 104.68901585963516 2.518039843988126e-15 1.9430397386229e-15 0.0 0.0 0.0 3.4483642953516864e-34 -3.975693351829396e-16 9.93923337957349e-17 -0.1474546211555023 -13.337956340376182 -5.177845880327085 -1.945926171702518 23.137844146558457 0.00939013669101846 0.0 0.0 3.975693351829396e-16
0.0 0.0 822.5481467276767 23.516298136594788 3.4278239641861257 5.334655468308941 0.0 0.0 9.93923337957349e-17 -0.1802983386994632 -14.93856278637371 -1.7347227818859308 -0.415964756310635 21.979194256070375 1.2355824502595116 0.0 1.987846675914698e-16 0.0 0.0 0.0 9.93923337957349e-17 0.03754010803984496 3.1498250013717697 0.9639202141016034 2.298801337728198 -7.75041093319374e-16 1.009673417751406e-15 1.3793457181406746e-33 -7.951386703658792e-16 1.987846675914698e-16 -26.63483387850518 9.004362560419377 71.9180154995213 -57.050758229448235 -6.538198923946508e-15 -1.2912015973378477e-15 0.0 0.0 -1.5902773407317584e-15 1.3793457181406746e-33 -7.951386703658792e-16 1.987846675914698e-16 -14.121895160197793 7.316263551403246 -12.890304725602023 1.3793457181406746e-33 -7.951386703658792e-16 1.987846675914698e-16 9.751715907985284 -15.477267896322422 -52.50971795287546 101.63319518466156 -9.565984316702908e-15 4.093193053358902e-16 0.0 0.0 0.0 0.0 0.0 9.93923337957349e-17 -0.16429054852045608 -13.409328525881921 -5.026954664498057 -1.9079760712727536 23.765860402944575 -0.08180674033675848 0.0 0.0 0.0
0.0 0.0 822.5481467276767 23.551834762001445 3.302569810514904 5.206584694630926 0.0 0.0 -3.4787316828507215e-16 -0.1758792502719421 -14.852734835881082 -1.505068664512466 -0.3306060638903703 22.121379584987142 1.16330911023678 0.0 0.0 3.975693351829396e-16 0.0 0.0 -3.4787316828507215e-16 0.038240222335390164 3.2646718065292544 1.0445893291155801 2.1703664374276346 -1.0200983946390104e-15 -1.3724192968602193e-15 0.0 0.0 -3.975693351829396e-16 -26.602326425206815 8.321867733213116 71.74927770678836 -56.609798296917376 3.742841751296798e-15 -2.420704721235647e-16 0.0 0.0 1.5902773407317584e-15 0.0 0.0 -3.975693351829396e-16 -13.735737381381153 7.018636454570764 -12.798708402094185 0.0 0.0 -3.975693351829396e-16 10.558809100418467 -13.148347156184284 -53.00052391754938 98.44053772882442 -1.8485326627731516e-14 9.256925025150823e-15 0.0 0.0 0.0 0.0 0.0 -3.4787316828507215e-16 -0.1608450383564835 -13.341100994834715 -4.922993669638824 -1.922401363385485 24.38517831600739 0.04230844349721846 0.0 0.0 3.975693351829396e-16
0.0 0.0 822.5481467276767 23.579372136872248 3.528339580935114 5.043572356873259 3.1805546814635168e-15 1.987846675914698e-16 -1.987846675914698e-16 -0.1840007907703829 -15.337483757171453 -1.2293990576763494 -0.2180228351485526 22.43993279137122 1.0655234097927142 0.0 0.0 3.975693351829396e-16 3.1805546814635168e-15 1.987846675914698e-16 -1.987846675914698e-16 0.03872245103441787 3.267911486447618 1.1802968762414452 2.060930006841368 5.855327041015124e-16 -6.069824096937994e-16 -3.103527865816518e-33 -1.987846675914698e-16 -1.7890620083232284e-15 -26.327865270210268 7.466002438224863 71.63865262908405 -56.36537596223934 5.632974514956886e-16 -1.0513079318823309e-15 0.0 0.0 1.5902773407317584e-15 -3.103527865816518e-33 -1.987846675914698e-16 -1.7890620083232284e-15 -13.208683026908751 6.630567166000005 -12.788605580077354 -3.103527865816518e-33 -1.987846675914698e-16 -1.7890620083232284e-15 11.644760070254486 -11.301526427402576 -53.59541349326359 95.15458119802 -1.6799811222513296e-14 1.881837186949777e-15 0.0 0.0 0.0 3.1805546814635168e-15 1.987846675914698e-16 -1.987846675914698e-16 -0.17026693069952653 -13.937577998230966 -4.70577525885955 -1.8879016773519741 25.196478505191802 0.017234046546036014 0.0 0.0 0.0
0.0 0.0 822.5481467276767 23.676425666259675 3.6316448547569182 4.947359424632265 0.0 0.0 -1.987846675914698e-16 -0.18178142610293513 -15.558864813969862 -1.0136639719658114 -0.13725551399729113 22.5902798091575 0.9155767139447252 0.0 0.0 3.975693351829396e-16 0.0 0.0 -1.987846675914698e-16 0.038275417821642496 3.3174609434610014 1.1799185929735918 1.8039605589006371 2.233299047968382e-15 2.9469788615417e-15 0.0 0.0 5.963540027744094e-16 -26.086513740602193 6.551160263702592 71.27426476751916 -56.26467512839339 -1.8816379342453768e-15 1.026468347976771e-14 0.0 0.0 0.0 0.0 0.0 5.963540027744094e-16 -12.577439044094852 6.212617289405231 -12.627822302343228 0.0 0.0 5.963540027744094e-16 13.000457987228323 -9.298717123262865 -54.424541247720654 92.03933198931259 -1.4716187037012777e-14 -5.3614452412395084e-15 0.0 0.0 -3.1805546814635168e-15 0.0 0.0 -1.987846675914698e-16 -0.16951044597317952 -14.232009670290703 -4.598988667359498 -1.873631607260314 25.52930098728937 0.0115988144631216 0.0 0.0 0.0
